# xmcd
#
# Track frame offsets:
#	150
#	19285
#	31065
#	45728
#	62410
#	76526
#	92459
#	113296
#	125447
#	142062
#	158801
#	176609
#	189370
#	204609
#
# Disc length: 2975 seconds
#
# Revision: 2
# Processed by: cddbd v1.4PL0 Copyright (c) Steve Scherf et al.
# Submitted via: EasyCDDAExtractor 5.1.0
#
DISCID=a60b9d0e
DTITLE=Lolic - Songs Along The Way
DYEAR=1900
DGENRE=Country
TTITLE0=second bird
TTITLE1=little nail
TTITLE2=the tanks roll out
TTITLE3=white city
TTITLE4=he didn't know her name
TTITLE5=perhaps love
TTITLE6=letter to the rabbi
TTITLE7=the greek mountain
TTITLE8=the flute
TTITLE9=the old road
TTITLE10=the italian sailor's song
TTITLE11=you
TTITLE12=the end of all roads
TTITLE13=to dream
EXTD=
EXTT0=
EXTT1=
EXTT2=
EXTT3=
EXTT4=
EXTT5=
EXTT6=
EXTT7=
EXTT8=
EXTT9=
EXTT10=
EXTT11=
EXTT12=
EXTT13=
PLAYORDER=
